<svg xmlns="http://www.w3.org/2000/svg" version="1.1" xmlns:xlink="http://www.w3.org/1999/xlink" width="200" height="200"><svg xmlns="http://www.w3.org/2000/svg" version="1.1" xmlns:xlink="http://www.w3.org/1999/xlink" width="200" height="200"><svg xmlns="http://www.w3.org/2000/svg" version="1.1" xmlns:xlink="http://www.w3.org/1999/xlink" viewBox="0 0 200 200"><rect width="200" height="200" fill="url('#gradient')"></rect><defs><linearGradient id="gradient" gradientTransform="rotate(45 0.5 0.5)"><stop offset="0%" stop-color="#6366f1"></stop><stop offset="100%" stop-color="#a855f7"></stop></linearGradient></defs><g><g fill="#ffffff" transform="matrix(2.3937662337662338,0,0,2.3937662337662338,10.06784535078259,117.71621334819051)" stroke="#ffffff" stroke-width="0"><path d="M9.98 0L9.15-2.66L4.45-2.66L3.63 0L-0.03 0L5.19-14.22L8.41-14.22L13.66 0L9.98 0ZM6.80-10.23L5.27-5.30L8.33-5.30L6.80-10.23ZM18.35-14.22L18.35 0L14.93 0L14.93-14.22L18.35-14.22ZM31.33-4.82L29.14-4.82L29.14 0L25.71 0L25.71-14.22L31.39-14.22Q33.02-14.22 34.27-13.62Q35.53-13.02 36.22-11.91Q36.90-10.80 36.90-9.39L36.90-9.39Q36.90-7.31 35.42-6.07Q33.93-4.82 31.33-4.82L31.33-4.82ZM29.14-11.57L29.14-7.47L31.39-7.47Q32.38-7.47 32.91-7.97Q33.43-8.47 33.43-9.38L33.43-9.38Q33.43-10.37 32.89-10.97Q32.35-11.56 31.43-11.57L31.43-11.57L29.14-11.57ZM44.97 0L44.87-1.14Q43.83 0.20 42.05 0.20L42.05 0.20Q40.31 0.20 39.42-0.82Q38.53-1.83 38.53-3.72L38.53-3.72L38.53-10.57L41.82-10.57L41.82-3.70Q41.82-2.34 43.13-2.34L43.13-2.34Q44.27-2.34 44.75-3.15L44.75-3.15L44.75-10.57L48.06-10.57L48.06 0L44.97 0ZM53.33-15L53.33 0L50.03 0L50.03-15L53.33-15ZM60.89-2.97L60.89-2.97Q60.89-3.39 60.45-3.64Q60.01-3.90 58.78-4.17Q57.55-4.44 56.75-4.89Q55.95-5.33 55.53-5.97Q55.11-6.60 55.11-7.42L55.11-7.42Q55.11-8.88 56.31-9.82Q57.51-10.76 59.45-10.76L59.45-10.76Q61.54-10.76 62.81-9.81Q64.08-8.87 64.08-7.32L64.08-7.32L60.78-7.32Q60.78-8.59 59.44-8.59L59.44-8.59Q58.93-8.59 58.57-8.31Q58.22-8.02 58.22-7.59L58.22-7.59Q58.22-7.15 58.65-6.88Q59.08-6.60 60.02-6.43Q60.97-6.25 61.68-6.01L61.68-6.01Q64.06-5.19 64.06-3.07L64.06-3.07Q64.06-1.62 62.78-0.71Q61.49 0.20 59.45 0.20L59.45 0.20Q58.10 0.20 57.03-0.29Q55.97-0.78 55.37-1.62Q54.78-2.46 54.78-3.39L54.78-3.39L57.85-3.39Q57.87-2.66 58.34-2.32Q58.81-1.98 59.54-1.98L59.54-1.98Q60.21-1.98 60.55-2.26Q60.89-2.53 60.89-2.97ZM70.71 0.20L70.71 0.20Q68.28 0.20 66.78-1.25Q65.27-2.71 65.27-5.03L65.27-5.03L65.27-5.30Q65.27-6.92 65.87-8.16Q66.47-9.40 67.63-10.08Q68.78-10.76 70.36-10.76L70.36-10.76Q72.59-10.76 73.88-9.38Q75.17-8.00 75.17-5.53L75.17-5.53L75.17-4.25L68.62-4.25Q68.80-3.36 69.39-2.85Q69.99-2.34 70.94-2.34L70.94-2.34Q72.50-2.34 73.38-3.44L73.38-3.44L74.88-1.66Q74.27-0.81 73.14-0.31Q72.01 0.20 70.71 0.20ZM70.34-8.22L70.34-8.22Q68.90-8.22 68.62-6.31L68.62-6.31L71.94-6.31L71.94-6.56Q71.96-7.35 71.54-7.79Q71.12-8.22 70.34-8.22Z"></path></g></g></svg></svg><style>@media (prefers-color-scheme: light) { :root { filter: none; } }
@media (prefers-color-scheme: dark) { :root { filter: none; } }
</style></svg>